<?xml version="1.0" encoding="UTF-8" standalone="no"?> <!-- Created with Vectornator for iOS (http://vectornator.io/) --><!DOCTYPE svg PUBLIC "-//W3C//DTD SVG 1.1//EN" "http://www.w3.org/Graphics/SVG/1.1/DTD/svg11.dtd">
<svg style="fill-rule:evenodd;clip-rule:evenodd;stroke-linecap:round;stroke-linejoin:round;" xmlns:vectornator="http://vectornator.io" xmlns:xlink="http://www.w3.org/1999/xlink" xmlns="http://www.w3.org/2000/svg" xml:space="preserve" version="1.1" viewBox="0 0 600 350">
<metadata>
<vectornator:setting key="DisplayWhiteBackground" value="0"/>
<vectornator:setting key="RulersVisible" value="1"/>
<vectornator:setting key="SnapToEdges" value="0"/>
<vectornator:setting key="Units" value="Pixels"/>
<vectornator:setting key="DynamicGuides" value="0"/>
<vectornator:setting key="SnapToPoints" value="0"/>
<vectornator:setting key="CMYKEnabledKey" value="0"/>
<vectornator:setting key="SnapToGrid" value="0"/>
<vectornator:setting key="ShowGrid" value="1"/>
<vectornator:setting key="GridSpacing" value="36"/>
</metadata>
<defs/>
<g id="Layer 1" vectornator:layerName="Layer 1" visibility="hidden">
<path stroke="#ffffff" stroke-width="1.5" d="M162.999+85.8975L164.662+85.8975L164.662+86.3133L162.999+86.3133L162.999+85.8975Z" fill="#000000" stroke-linecap="round" opacity="1" stroke-linejoin="round"/>
<path stroke="#ffffff" stroke-width="1.5" d="M164.662+556.597L167.988+556.597L167.988+557.429L164.662+557.429L164.662+556.597Z" fill="#000000" stroke-linecap="round" opacity="1" stroke-linejoin="round"/>
<path stroke="#ffffff" stroke-width="1.5" d="M-16.9271-17.2846L619.437-17.2846L619.437+363.62L-16.9271+363.62L-16.9271-17.2846Z" fill="#000000" stroke-linecap="round" opacity="1" stroke-linejoin="round"/>
</g>
<g id="Layer 2" vectornator:layerName="Layer 2">
<path stroke="#ffffff" stroke-width="2" d="M29.6159+315.893C27.3099+315.893+28.7203+316.076+30.0252+315.075C35.4165+310.937+40.6209+306.561+45.9853+302.388C68.5083+284.87+91.9406+268.74+114.737+251.643C115.917+250.758+112.234+253.213+111.054+254.099C108.957+255.671+106.923+257.326+104.915+259.01C97.6467+265.106+97.6052+265.693+89.7734+272.514C77.3796+283.309+64.6868+293.936+51.7146+304.025C-53.9585+386.216+56.0349+299.948+42.3022+311.392C40.9602+312.51+39.574+313.574+38.2099+314.665C37.2936+315.398+35.3452+315.538+35.3452+316.712C35.3452+316.984+35.9313+316.855+36.1637+316.712C39.4146+314.711+40.7937+313.281+43.5299+310.982C54.1301+302.078+51.9773+303.909+66.447+292.976C84.4772+279.353+103.754+267.423+122.512+254.917C122.921+254.644+121.694+255.463+121.284+255.736C120.875+256.008+120.405+256.206+120.057+256.554C119.167+257.443+118.491+258.529+117.601+259.419C111.382+265.638+110.17+266.164+103.278+272.105C88.8618+284.533+73.9424+296.638+59.0808+308.527" fill="none" stroke-linecap="round" opacity="1" stroke-linejoin="round"/>
<path stroke="#ffffff" stroke-width="2" d="M106.961+328.579C109.28+324.76+111.55+320.91+113.918+317.121C119.735+307.814+125.513+298.481+131.515+289.293C132.203+288.24+132.713+286.428+133.971+286.428C134.964+286.428+133.466+288.351+133.152+289.293C132.647+290.808+132.072+292.298+131.515+293.794C129.89+298.164+128.219+302.517+126.604+306.89C126.241+307.874+118.829+326.886+118.829+330.626C118.829+332.829+120.364+326.49+121.284+324.487C122.991+320.773+124.666+317.037+126.604+313.438C131.756+303.871+136.919+294.311+142.155+284.791C142.538+284.096+148.612+271.866+151.568+269.65C152.018+269.312+151.348+270.757+151.159+271.287C150.664+272.67+150.147+274.05+149.522+275.379C127.198+322.817+149.399+274.385+143.792+287.247C139.11+297.988+134.031+307.946+128.651+318.348C125.588+324.269+121.729+330.128+119.238+336.355" fill="none" stroke-linecap="round" opacity="1" stroke-linejoin="round"/>
<path stroke="#ffffff" stroke-width="2" d="M178.168+334.309C182.443+321.483+179.281+330.746+195.765+300.342C196.732+298.559+198.138+296.915+199.857+295.841C200.223+295.612+200.403+296.659+200.267+297.068C199.145+300.433+197.492+303.597+196.174+306.89C194.763+310.418+193.264+313.919+192.082+317.53C190.806+321.43+189.803+325.417+188.808+329.398C188.574+330.334+187.82+333.034+188.399+332.262C191.246+328.466+191.161+323.173+192.9+318.758C195.297+312.675+197.952+306.695+200.676+300.751C202.472+296.833+205.529+291.787+209.27+289.293C209.497+289.142+209.306+289.841+209.27+290.111C209.033+291.89+208.897+293.693+208.451+295.431C206.906+301.46+203.051+312.273+201.085+317.939C197.995+326.846+198.221+323.215+198.221+328.17" fill="none" stroke-linecap="round" opacity="1" stroke-linejoin="round"/>
<path stroke="#ffffff" stroke-width="2" d="M265.335+331.444C265.335+313.529+265.134+327.62+271.473+286.019C271.558+285.463+271.836+283.822+271.883+284.382C272.781+295.168+272.988+306.317+273.52+317.121C273.687+320.53+273.807+323.941+273.929+327.352C273.943+327.761+273.929+328.579+273.929+328.579C273.929+328.579+273.911+327.76+273.929+327.352C274.048+324.623+274.159+321.893+274.338+319.167C274.705+313.571+275.017+307.969+275.566+302.388C275.836+299.643+274.843+296.154+276.794+294.204C278.253+292.744+277.396+298.289+277.612+300.342C277.942+303.474+278.302+306.608+278.43+309.755C278.764+317.926+276.618+328.053+279.249+335.946" fill="none" stroke-linecap="round" opacity="1" stroke-linejoin="round"/>
<path stroke="#ffffff" stroke-width="2" d="M338.997+330.626C333.889+317.854+332.474+315.281+332.859+293.385C332.931+289.242+337.447+302.743+338.588+305.253C343.678+316.452+340.928+309.131+346.363+324.078C347.794+328.011+344.655+325.817+350.456+332.262C351.003+332.871+350.482+330.625+350.456+329.807C350.346+326.396+350.294+322.98+350.046+319.576C349.748+315.474+349.228+311.392+348.819+307.299C348.41+303.207+347.942+299.12+347.591+295.022C347.533+294.343+347.264+292.377+347.591+292.976C351.222+299.633+352.204+307.657+354.957+314.665C356.699+319.098+358.948+323.875+361.096+328.17" fill="none" stroke-linecap="round" opacity="1" stroke-linejoin="round"/>
<path stroke="#ffffff" stroke-width="2" d="M423.299+322.85C417.426+313.062+421.999+321.18+416.342+294.204C416.254+293.781+416.549+295.05+416.752+295.431C418.871+299.421+420.911+303.464+423.299+307.299C424.455+309.156+434.025+322.391+435.986+324.896C437.056+326.264+437.984+329+439.669+328.579C440.474+328.378+439.461+326.929+439.26+326.124C438.641+323.652+437.87+321.22+437.213+318.758C434.914+310.136+431.655+301.06+430.666+292.157C430.632+291.854+430.931+292.707+431.075+292.976C432.023+294.753+433.079+296.475+433.94+298.296C435.4+301.39+436.575+304.613+438.032+307.708C442.075+316.3+445.632+323.174+450.718+331.035C451.969+332.968+454.443+338.429+456.857+340.038" fill="none" stroke-linecap="round" opacity="1" stroke-linejoin="round"/>
<path stroke="#ffffff" stroke-width="2" d="M521.925+323.669C513.908+315.651+507.192+299.21+503.1+287.656C502.249+285.254+501.451+282.807+501.054+280.29C501.006+279.988+501.672+279.651+501.872+279.88C504.191+282.53+506.007+285.58+508.011+288.474C513.702+296.694+519.42+304.87+525.199+313.028C527.327+316.033+524.301+312.341+528.882+317.939C529.126+318.238+529.836+319.119+529.7+318.758C528.265+314.93+525.912+311.498+524.38+307.708C520.172+297.299+519.573+294.902+517.014+284.382C516.622+282.77+514.711+280.213+516.196+279.471C518.617+278.26+519.832+283.489+521.516+285.61C523.688+288.346+525.754+291.173+528.063+293.794C534.97+301.634+542.995+310.353+550.571+317.53C552.743+319.588+554.964+321.593+557.119+323.669C558.648+325.14+560.181+326.611+561.621+328.17C561.828+328.394+562.303+329.125+562.03+328.989C561.068+328.507+560.807+327.771+560.393+326.942" fill="none" stroke-linecap="round" opacity="1" stroke-linejoin="round"/>
<path stroke="#ffffff" stroke-width="2" d="M30.4344+23.2905C45.7503+38.6064+79.224+55.1834+96.3212+65.4416C96.7571+65.7032+104.702+71.2611+105.734+71.9894C106.692+72.6661+107.622+73.3847+108.598+74.0356C109.669+74.7494+112.719+77.0502+111.872+76.0817C102.703+65.6024+89.2868+59.7543+77.4964+52.3461C75.3491+50.997+55.3585+39.8302+50.4869+35.5675C49.8624+35.0211+52.1895+35.6279+52.9423+35.9768C57.8135+38.2341+62.4928+40.8843+67.2655+43.343C71.496+45.5223+75.7148+47.7241+79.9518+49.8907C87.7191+53.8627+95.5909+57.6337+103.278+61.7585C106.054+63.2483+115.712+70.5237+120.466+71.5802C120.887+71.6737+120.349+70.6694+120.057+70.3525C118.681+68.8624+117.1+67.5735+115.555+66.2601C110.815+62.2309+105.793+58.5437+100.823+54.8016C89.9204+46.5928+79.8292+38.6692+68.4932+31.4752C64.3055+28.8176+60.0512+26.2661+55.8069+23.6997C47.5946+18.7341+50.7083+20.3319+53.3515+21.6536" fill="none" stroke-linecap="round" opacity="1" stroke-linejoin="round"/>
<path stroke="#ffffff" stroke-width="2" d="M147.885+14.6966C155.146+25.5886+162.015+36.748+169.574+47.4353C170.35+48.5322+168.566+44.9396+167.937+43.7522C167.335+42.6149+166.511+41.606+165.891+40.4784C163.509+36.1473+161.107+31.8227+158.934+27.3829C157.965+25.4034+157.24+23.3123+156.479+21.2443C156.284+20.7166+155.566+19.3559+156.069+19.6074C156.778+19.9616+158.288+22.3208+158.934+23.2905C169.171+38.6459+159.928+25.1653+172.439+42.1153C174.124+44.3991+175.342+47.0651+177.35+49.0723C177.747+49.47+177.907+47.978+177.759+47.4353C177.469+46.3743+176.679+45.5186+176.122+44.5707C173.951+40.8806+171.85+37.1478+169.574+33.5214C167.483+30.1884+165.166+27.0016+163.026+23.6997C154.897+11.1573+156.887+15.7853+154.023+8.14884" fill="none" stroke-linecap="round" opacity="1" stroke-linejoin="round"/>
<path stroke="#ffffff" stroke-width="2" d="M229.732+12.2412C229.732+17.1336+233.531+22.3037+235.461+26.5644C237.929+32.0151+240.47+37.4341+242.827+42.9338C243.337+44.1232+243.646+45.3892+244.055+46.6169C244.191+47.0261+244.464+48.2759+244.464+47.8446C244.464+44.0705+243.129+38.3606+242.418+35.1583C240.504+26.5449+240.744+30.6378+239.962+21.6536C239.892+20.8382+239.334+18.6742+239.962+19.1982C242.817+21.5768+243.312+26.9842+244.464+30.2475C246.197+35.1568+248.553+39.7889+250.603+44.5707C251.012+45.5259+252.785+49.7545+253.467+51.5277C253.886+52.6155+254.297+53.7062+254.695+54.8016C254.842+55.207+254.799+56.3343+255.104+56.0293C257.088+54.0456+253.073+46.7617+252.649+44.9799C249.804+33.0329+248.966+21.6105+248.966+9.37654" fill="none" stroke-linecap="round" opacity="1" stroke-linejoin="round"/>
<path stroke="#ffffff" stroke-width="2" d="M338.179+13.0596C331.365+8.51749+332.615+27.1301+331.222+32.7029C330.194+36.8118+329.111+40.9075+327.948+44.9799C327.675+45.9348+327.573+46.9563+327.129+47.8446C326.957+48.1897+326.235+49.0414+326.311+48.663C327.727+41.5847+331.593+34.1501+334.086+27.3829C334.638+25.8846+335.037+24.3228+335.723+22.8813C336.407+21.445+337.296+20.1126+338.179+18.7889C338.393+18.4679+338.943+17.5885+338.997+17.9705C340.075+25.5133+337.717+34.3605+336.542+41.7061C336.355+42.8761+335.289+47.9474+336.132+49.0723C336.391+49.4174+337.109+49.0141+337.36+48.663C338.728+46.7475+339.34+43.4458+340.225+41.2968C341.759+37.5699+343.538+33.9477+345.136+30.2475C348.499+22.4581+351.839+14.6492+356.185+7.33037C357.54+5.04826+359.49-0.0514411+362.733-1.67279" fill="none" stroke-linecap="round" opacity="1" stroke-linejoin="round"/>
<path stroke="#ffffff" stroke-width="2" d="M412.25+22.0628C411.704+23.2905+411.044+24.4732+410.613+25.7459C393.91+75.1301+403.183+48.3241+406.93+39.6599C408.549+35.9168+413.014+27.8572+415.115+25.3367C415.43+24.9588+415.933+26.0725+415.933+26.5644C415.933+27.822+415.354+29.0128+415.115+30.2475C405.288+81.0169+414.925+28.8251+413.478+40.8876C413.133+43.7607+412.69+46.6214+412.25+49.4815C412.144+50.169+411.467+52.1145+411.841+51.5277C421.994+35.5732+425.738+15.2211+441.715+3.23802" fill="none" stroke-linecap="round" opacity="1" stroke-linejoin="round"/>
<path stroke="#ffffff" stroke-width="2" d="M468.315+13.8781C461.002+24.8485+467.898+14.2768+456.038+48.2538C454.844+51.6759+453.594+55.0783+452.355+58.4847C451.662+60.3905+453.708+54.6612+454.401+52.7554C455.345+50.1596+456.191+47.5245+457.266+44.9799C460.046+38.3961+463.437+31.1858+467.087+24.9274C467.831+23.6529+468.262+21.9764+469.543+21.2443C470.147+20.8992+470.015+22.5978+469.952+23.2905C469.874+24.1497+469.366+24.9151+469.134+25.7459C468.411+28.3267+467.816+30.9423+467.087+33.5214C456.574+70.7244+465.782+37.0936+463.404+46.2076C462.728+48.8009+461.961+51.3717+461.358+53.9831C461.141+54.923+459.984+56.8477+460.949+56.8477C461.988+56.8477+461.84+54.966+462.177+53.9831C465.47+44.3565+468.254+34.5396+471.589+24.9274C473.668+18.9343+475.148+16.43+478.546+10.6042C480.283+7.62695+481.82+6.0132+481.82+10.6042" fill="none" stroke-linecap="round" opacity="1" stroke-linejoin="round"/>
<path stroke="#ffffff" stroke-width="2" d="M519.469+9.37654C519.197+9.37654+518.784+9.13831+518.651+9.37654C513.273+19.013+505.77+35.0389+501.054+44.9799C498.857+49.6112+496.646+54.2361+494.506+58.8939C494.326+59.2859+493.792+59.8166+494.097+60.1216C494.37+60.3944+494.691+59.6171+494.915+59.3031C495.378+58.6559+495.726+57.9344+496.143+57.257C496.818+56.161+497.59+55.1219+498.189+53.9831C500.178+50.2042+502.053+46.3657+503.919+42.5245C507.361+35.4371+510.396+28.8272+514.559+22.0628C516.105+19.5495+517.307+16.7046+519.469+14.6966C520.008+14.1967+520.288+16.0082+520.288+16.7428C520.288+17.7358+519.811+18.675+519.469+19.6074C518.31+22.7706+517.069+25.9044+515.786+29.0198C512.302+37.483+508.829+45.3892+504.737+53.5739C503.291+56.4663+501.827+59.3525+500.235+62.1678C500.046+62.5037+499.369+63.3691+499.417+62.9862C501.268+48.1769+512.125+34.824+519.469+22.472C522.315+17.6863+525.281+12.9716+528.063+8.14884C529.375+5.87603+530.432+3.46267+531.747+1.19185C532.088+0.601583+533.19-1.09214+532.974-0.445084C532.606+0.660606+532.115+1.7231+531.747+2.82879" fill="none" stroke-linecap="round" opacity="1" stroke-linejoin="round"/>
<path stroke="#ffffff" stroke-width="2" d="M590.627+68.4148C590.779+68.3808+590.932+68.3447+591.086+68.3063" fill="none" stroke-linecap="round" opacity="1" stroke-linejoin="round"/>
</g>
</svg>
