<?xml version="1.0" encoding="utf-8"?>
<!-- Generator: Adobe Illustrator 23.0.3, SVG Export Plug-In . SVG Version: 6.00 Build 0)  -->
<svg version="1.1" id="Layer_1" xmlns="http://www.w3.org/2000/svg" xmlns:xlink="http://www.w3.org/1999/xlink" x="0px" y="0px"
	 viewBox="0 0 400 144" style="enable-background:new 0 0 400 144;" xml:space="preserve">
<style type="text/css">
	.st0{fill:none;}
	.st1{fill:#FFFFFF;}
</style>
<g>
	<path class="st0" d="M264.6,7.6c0-0.6-0.1-1.2-0.1-1l0.1-0.3l-0.1,0.1l0,0.3l0,0.1v0.4l0.1-0.1c-0.1,0.3-0.1,0.8-0.3,0.9v0.1
		C264.3,8.4,264.5,7.8,264.6,7.6L264.6,7.6z M332.2,74.3l-0.1,0.1h0.1l0.7,0c0-0.1,0.4-0.6,0.6-1.3c0.1-0.3,0.1-0.7,0.1-1.1
		C333,73,332.4,73.8,332.2,74.3z M181.2,111.7c0,0.3,0.1,0.4,0.1,0.1C181.3,111.6,181.2,111.6,181.2,111.7z"/>
	<path class="st0" d="M335,73.7l0.2-0.2l0.2-0.2c0.4-0.5,0.5-0.8,0.4-0.8c-0.2,0.3-0.4,0.5-0.5,0.6l-0.2,0.1l-0.3,0.1
		c-0.1,0.1-0.4,0.3-0.9,0.5l-0.1,0.3c-0.3,0.1-0.5,0.2-0.9,0.3l-0.3,0H332l-0.1,0.1h0.4l0.3,0l0.3,0c0.5-0.1,1-0.3,1.4-0.5L335,73.7
		z M264.2,8.4L264.2,8.4l0-0.1l0,0V8l0,0.5L264.2,8.4L264.2,8.4z M180.9,109.3v0.1l0,0.1l0,0.1v0.2l0-0.9L180.9,109.3z M264.1,7
		c0-0.1-0.1-0.2-0.1-0.1C263.9,7,264,7,264.1,7z M264.6,8.2V8.1V8.2z M188.7,12v-0.1V12z"/>
	<path class="st0" d="M180.6,110.7c0,1.1,0.1,2.1,0.1,1.7l-0.1,0.5l0.1-0.3l0-0.5l0-0.1v-0.2v-0.6c0,0-0.1,0.1-0.1,0.1
		c0.1-0.5,0.1-1.4,0.3-1.7v-0.2C180.9,109.3,180.8,110.2,180.6,110.7L180.6,110.7z M188.7,11.5c0-0.5,0-1.1-0.1-0.9l0.1-0.3
		l-0.1,0.1l0,0.3l0,0.1v0.4c0,0,0.1-0.1,0.1,0c-0.1,0.3-0.1,0.7-0.3,0.8v0.1C188.4,12.1,188.6,11.7,188.7,11.5L188.7,11.5z
		 M180.6,109.7L180.6,109.7z M188.2,10.9c0-0.1-0.1-0.2-0.1-0.1C188.1,10.9,188.1,10.9,188.2,10.9z M188.4,12.1L188.4,12.1V12v-0.1
		c0,0.2-0.1,0.4,0,0.5l0.1-0.1L188.4,12.1L188.4,12.1z M385.2,94.1L385.2,94.1L385.2,94.1L385.2,94.1L385.2,94.1z M384.5,94.9
		c0.4-0.3,0.4-0.3,0.5-0.3l0.1,0l0.1-0.1l0-0.1l-0.1-0.1l0-0.1l0,0l-0.1,0l-0.1,0l-0.3,0.4C384.6,94.6,384.4,94.8,384.5,94.9
		L384.5,94.9z"/>
	<path class="st1" d="M17.8,44.6c0.3-1,0.5-2.1,0.8-3.5C18.2,41.9,18,43.3,17.8,44.6z M17.8,44.6C17.8,44.6,17.8,44.6,17.8,44.6
		C17.8,44.6,17.8,44.6,17.8,44.6z M65.7,30.5l0.3-1.1L65.7,30.5z M51.9,115.2l0,0.1L51.9,115.2z M63.6,65.5c0.1-0.5-0.1-1.5,0.7-4
		c1.2-4.1,2.3-8.6,3.5-12.8c0.1,0.1-0.1,1-0.3,1.9c0.1-0.5,0.4-1.4,0.6-1.9c-0.4,0.9,0.4-1.8,0.1-1c0.4-3.1,1.9-7,2.4-9.7
		c-0.3-0.3-4.2-7.4-4.6-7.5c-0.1,0.3-0.2,0.5-0.3,0.8l0.2,0.2c-0.5,2-0.3,0.4-0.8,2.4c-0.2,0,0.3-1.7,0.7-3.4
		c-0.4,1.4-1,2.8-0.9,3.5c-0.5,1.3-0.2-0.2-0.7,1.4c-0.3,1.2-0.5,2.7-1,4l0,0c-1.1,3.2-1.1,5-2.1,7.9l0-0.3c-0.4,1-0.8,3.1-1.4,5
		c0.2-0.5,0.4-0.9,0.1,0.2c-0.7,2.1-1,3.6-1.5,5.2l-0.2,1.6c-1,3.8-3.4,13.2-5.6,22.6c-1.1,4.7-2.2,9.4-3.1,13.4l-0.1,0.4v0.1l0,0.1
		l0,0.3L49,96.2v-0.1l-0.2,1v0c0,0,0,0,0,0l0-0.1l0-0.1l-0.1-0.3l-0.2-0.6l-0.2-0.7l-0.1-0.2L47.7,94L47,91.3l-2.7-10.2l-1.1-4.6
		l-0.1-0.5L42.9,75l-0.4-1.9L42,71.3l-0.2-0.8l-0.2-0.9c-0.6-3.6-1.6-8.5-2.3-12.3c0.4,2.2,0.1,1.8-0.1,0.3l-0.8-3.8
		c-1,2-0.9,1.8-1,2.2c-0.1,0.4-0.6,1.3-2.6,5.5l-1.2,2.6L32,67.2c-1,1.9-1.9,3.7-2.9,5.6l-0.9,1.6c-3.9,7.1-7.9,14-12,20.9
		c0.6-3.1,1.1-5.7,1.3-6.9L17.4,89c0.5-3.6,0.7-3,1.3-5.8c-0.4,0.3,0-2.7,0.2-3.9l0.1,0.1c0.3-1.7,0.7-5.8,1.2-8.6l0.1,0.1
		c0.3-2.4,1.1-6.9,1.3-8.7c0.7-3.9,2-10,2.6-15.3l1-3.4l0-0.5c0,0-1.2-1.6-2.6-2.3s-3.2-0.6-4.3,2.8l-0.1-0.1l-0.2,1.4
		c-0.3,1.6-0.3,2.4-0.4,2.3l0.4-2.3c-0.3,1.6-0.2,0.5-0.2-0.2l-0.4,1.9c0,0.3,0.1-0.2,0.2-0.5c-0.1,0.9-0.1,2.1-0.4,3.2
		c-0.3,1.7-0.3,0.1-0.6,2c-1.8,10.4-3.7,20.5-5.6,31c-0.1,0.2-0.1-0.1,0-0.4c-0.5,3.2-1.1,6-1.6,8.9c-0.2,0.8-0.4,1-0.5,1.2
		c-0.4,2.6-0.9,5.2-1.4,7.8l-1.1,5.6l-0.6,2.7l0.3,0.3c-0.7,3.1-0.5,0.8-1.1,3.7v0.7l-2.6,23.2L12.5,116c0.7-1.4,2.4-3.6,2.7-4.4
		c0,0,0.8-1.2,0.8-1.1c0-0.5,0.7-1.3,1.2-2.1c0.1-0.3-0.2,0.2-0.4,0.4l1-1.8c0.5-0.7,0.7-0.8,0.3,0c5.3-8.5,10.4-17.1,15.3-25.9
		l1.2-2.1l0.5-1l0.1-0.2l0.1-0.1v-0.1c0-0.1-0.1-0.1-0.1-0.1l-0.2,0c0-0.1,0-0.1,0-0.2l0-0.2c0.1,0.2,0.1,0.2,0.2,0.2s0.1,0,0.1,0.4
		v-0.5v0.3l0.1-0.4c0-0.1,0,0,0,0.3l0.2,0c0.1,0,0.1,0.1,0.1,0.3c0,0,0.1-0.2,0.2-0.1l0,0.1v0.1l0.1,0.4c0.2,0.6,0.4,1.3,0.3,1.5
		c0.2,0.9,0.9,3.7,0.9,2.7c0,0.5,0.5,3,0.1,1.6c0.1,0.8,0.3,1.5,0.6,2.3L37.7,85c0.7,2.8,0.9,4.4,1.6,6.3l-0.2-1.1
		c0.5,1.7,0.8,3.1,0.8,3.9l-0.5-1.7l1,3.6l0.5,1.8l0.9,3l-0.4-1.5l1.4,4.4l0.5,1.6l0.5,1.6l1.2,3.6c0.8,2.5,1.7,5,2.5,7.5l1.2,3.7
		l0.6,1.8c0.2,0.5,0.4,1.2,0.5,1.5c1-5,1.7-8.9,2-10.7l-0.5,1.5l0.8-4.3l-0.1,2l-0.1,1.7l1.1-4.8c0.5-2.5,1-5,1.6-7.5l1-4.4l0.8-3.4
		l1.3-5.8c1.8-7.8,3.8-15.5,4.4-17.9c0.6-1.9,0.4-0.3,0.4-0.2c0.5-2.3,0-1.1,0.5-3c0.2-0.5,0.1,0.1,0.1,0.5c0.2-0.9,0.5-1.6,0.4-1.7
		c-0.3,1.1-0.5,0.5-0.8,0.9l0.7-2.5L63.6,65.5L63.6,65.5z M74.6,37.8c-0.1,0.2-0.1,0.4-0.1,0.7C74.6,38.2,74.6,38,74.6,37.8z
		 M102.2,29.2c-0.3,0.2-0.5,0.6-0.8,1C101.8,29.9,102,29.6,102.2,29.2z M69.2,113.8c-0.1,0.1-0.1,0.2-0.1,0.4L69.2,113.8z"/>
	<path class="st1" d="M96.2,55.1c0.5-1.1,3.9-7.1,4.4-8.4l-0.1,0.1c0.4-1.2,0.6-0.9,1.1-1.7c-0.3,0,0-1,0.2-1.4l0,0
		c0.3-0.5,0.7-1.9,1.1-2.8l0.1,0.1c0.3-0.8,1.1-2.2,1.3-2.7c0.7-1.2,2-2.9,2.7-4.6l1-0.8l0-0.2c0,0-4-4.3-6.2-2.8l-0.1-0.1l-0.2,0.4
		c-0.3,0.5-0.3,0.8-0.4,0.7l0.4-0.7c-0.3,0.5-0.2,0.1-0.2-0.1l-0.4,0.5c0,0.1,0.1,0,0.2-0.1c-0.1,0.3-0.2,0.8-0.4,1.1
		c-0.3,0.5-0.3-0.1-0.6,0.5c-1.9,3.2-3.7,6.2-5.4,9.5c-0.1,0,0,0,0-0.1c-0.5,1-0.9,1.9-1.3,2.8c-0.2,0.2-0.3,0.3-0.4,0.3
		c0.1,0-0.5,1.2-1.2,2.5l-0.9,1.8l-0.4,0.8l0.2,0.2c-0.5,1-0.4,0.1-0.8,1.1c0.2,0.5-0.8,1.5-0.8,1.9c0,0-0.3,0.4-0.4,0.3
		c0.1,0.3-0.2,0.5-0.3,0.8c0,0.1,0.1,0,0.2-0.1l-0.3,0.7c-0.2,0.2-0.3,0.2-0.2-0.1c-1.3,2.3-2.5,4.5-3.6,6.9l0-0.8
		c0,0.2-0.2,0.1-0.2,0c-0.1-1.1-0.1-0.1-0.3-1.1c-0.3-1.2-0.7-6.1-0.7-7.2c-0.3-0.6-0.2-1.3-0.4-1.9l0.1,0c-0.2-0.6-0.3-4.2-0.5-5
		l0,0.1c-0.2-0.6,0.1-0.6,0.1-1.1c-0.3,0.1-0.5-0.4-0.5-0.7H82c-0.1-0.3-0.4-1-0.5-1.5h0.1c-0.2-0.4-0.2-1.2-0.3-1.6
		c0-0.7,0.1-1.9-0.1-2.8l0.4-0.7h-0.1c0,0-5.6-0.4-6.7,0.9h-0.1l0,0.3c0,0.3,0.1,0.4,0,0.4l0-0.4c0,0.3-0.1,0.1-0.2,0l0,0.4
		c0.1,0,0.1,0,0.1-0.1c0.1,0.1,0.3,0.4,0.2,0.6c0,0.3-0.3,0-0.3,0.4c0.1,1.9,0.1,3.8,0.3,5.7c-0.1,0-0.1,0-0.1,0
		c0.1,0.6,0.1,1.1,0.3,1.6c-0.1,0.1-0.1,0.2-0.2,0.3c0.1,0,0.2,0.7,0.3,1.4l0.1,1.1l0,0.5h0.3c0.1,0.6-0.3,0.2-0.2,0.7
		c0.4,0.1,0.1,0.9,0.3,1.1c0,0,0,0.3-0.1,0.3c0.2,0,0.1,0.3,0.1,0.4c0.1,0,0.1,0,0.1-0.1l0.1,0.4c0,0.1-0.2,0.2-0.2,0
		c0,1,0.4,5.7,0.6,6.7c0.1-0.1,0-0.5,0.3-0.6c0.2,0.3,0,0.4,0.2,0.5c-0.4,0.1,0,0.6-0.4,0.9l0.2,0l-0.1,0.1c0.4,1.2,0.1,0.3,0.2,1.3
		c0.1,0.6,0.5,0.9,0.4,1.2c0,0,0.1-0.2,0.2,0c-0.2,0,0.2,0.4,0,0.5c0,0.1,0.1,0.7,0.3,0.5c-0.1,0.1-0.1,0.6-0.3,0.3
		c0,0.1,0,0.3,0.1,0.4l0-0.2c0.1,0.5-0.1,0.8,0.2,1.1l0.1-0.2c0.1,0.3,0.1,0.6-0.1,0.7L77.4,66c0.1,0.5,0.1,0.8,0.3,1.2v-0.1
		c0.3,0.5,0.9,3.4,1.3,3.8l0.2-0.3l0.2,0.4c0,0-0.7-0.1-0.6-0.2l0.4,2.3l-0.1,0.1c-0.1,0.3-0.6,1.2-0.2,1c-0.2,0.1-0.6,0.9-0.5,0.3
		c-0.1,0.3-0.3,0.5-0.3,0.7l0.2-0.3c-0.4,0.9-0.8,1.3-0.9,2l0.3-0.3c-0.3,0.5-0.4,1-0.8,1.1l0.2-0.6c-0.4,0.9-0.7,1.5-0.9,2.3
		l0.1-0.3c-0.2,1.1-2.4,6.2-2.5,7.2l0.4-0.3l-0.2,0.8c0-0.1-0.4-0.7-0.3-0.7C72.8,88,69,96.6,68.2,98.1c-0.4,0.6-0.4,0-0.4,0
		c-0.3,0.8,0,0.4-0.3,1.1c-0.1,0.1-0.1-0.1-0.1-0.2c-0.1,0.3-0.3,0.5-0.2,0.6c0.2-0.3,0.4-0.1,0.6-0.1l-0.4,0.8l-0.1-0.1
		c-0.1,0.2,0.2,0.7-0.3,1.4c-0.7,1.3-1.3,2.8-1.9,4.2c-0.1-0.1,0-0.4,0.1-0.7c-0.1,0.2-0.2,0.5-0.3,0.6c0.3-0.3-0.1,0.6,0,0.4
		c-0.1,1.2-1,2.3-1.1,3.3c0.3,0.2,4.8,4.3,5.1,4.5l-0.3,0.6c0.1,0,0.4-0.5,0.5-0.8l-0.2-0.1c0.2-0.7,0.2-0.1,0.5-0.7
		c0.2,0,0,0.7-0.3,1.2c0.2-0.5,0.5-0.9,0.4-1.1c0.3-0.4,0.2,0.1,0.5-0.4c0.1-0.4,0.2-0.9,0.5-1.3l0,0c0.6-1,0.4-1.7,1.1-2.6v0.1
		c0.3-0.3,0.4-1,0.8-1.6c-0.1,0.1-0.3,0.3-0.1-0.1c0.4-0.7,0.5-1.2,0.9-1.6l0-0.6c0.6-1.2,1.9-4.3,3.2-7.3l3.2-7.3l0,0.1
		c0.9-2,2.3-5.1,3.8-8.2l2.9-0.4l0-0.1l1.5-0.2c-0.1-0.2-0.1-0.4-0.1-0.6l0.1,0c0.1-0.2-0.1-0.5-0.1-0.9c0,0.1-0.1,0.2-0.2,0
		c0.1-0.4-0.1-0.7,0-1l-0.2-0.3l-0.6-3.8c0.4-0.5,0.8-1.3,1.1-1.9c-0.2,0.3-0.3,0.1-0.1-0.1c0.9-1.9,0-0.2,0.8-2.1
		c2-4.2,4.1-8.3,6.4-12.3c0.3-1.2,1.1-2.3,1.5-3.4L96.2,55.1L96.2,55.1z M128.8,35.9c0.6-0.2,1.1-0.5,1.8-0.9
		C130.1,35,129.4,35.5,128.8,35.9z M97.3,115.6l-0.4,0.4L97.3,115.6z M142.4,71.6l-0.5-0.7c-0.3-0.4-0.7-0.8-1.1-1.2
		c-0.1-0.1-0.2-0.2-0.3-0.2l-0.3-0.2l-0.5-0.4l-1-0.6l-0.5-0.3l-0.5-0.2l-0.9-0.4c-0.6-0.3-1.2-0.4-1.7-0.5l-1.5-0.3
		c-1.1-0.4-2.7-0.7-3.9-0.8c0.7,0.1,0.4,0.3-0.1,0.2c-1.8-0.2-1.8-0.1-1.9-0.1c-0.1,0-0.1,0.1-1.9,0l-0.9,0l-1.1,0l-2.8-0.1
		c-2.1,0-4.5,0-6.9,0l-1.8,0.1l-0.6,0l-0.5,0.1l-0.9,0.1l-1.6,0.2l-0.4,0l-0.3,0l-0.3,0h-0.1c-0.4,0-0.7,0-0.9-0.1
		c-0.3,0.1-0.6,0-0.7-0.3c0-0.1,0-0.3,0.1-0.3l0.1-0.3l0,0l0.1-0.2l0.1-0.1l0.3-0.4l0.4-0.5l0.2-0.3l0.4-0.4l1.5-1.7
		c2.1-2.3,4.4-4.6,5.2-5.4l-0.3,0.2c1.3-1.5,1.3-1.1,2.5-2c-0.2,0,0-0.4,0.3-0.8c0.3-0.4,0.7-0.8,0.9-1l0,0.1
		c0.7-0.7,2.2-2.3,3.4-3.3l0,0.2c0.9-1,2.9-2.4,3.7-3c1.8-1.3,4.7-3,7-4.8l1.8-0.7l0.2-0.2c0,0-0.1-1.6-0.8-3
		c-0.6-1.4-1.7-2.7-3.7-2.1l0-0.2l-0.7,0.5c-0.8,0.5-1.1,0.9-1.1,0.7l1.1-0.7c-0.8,0.5-0.3,0-0.1-0.2l-0.9,0.5
		c-0.1,0.1,0.1,0,0.3-0.1c-0.4,0.3-0.9,0.9-1.4,1.2c-0.8,0.5-0.2-0.2-1.1,0.5c-5,3.3-9.8,7-14.2,11c-0.1,0,0-0.1,0.1-0.2l-1.9,1.9
		c-0.6,0.6-1.2,1.2-1.8,1.8c-0.4,0.3-0.5,0.3-0.7,0.4c0.1,0-1.5,1.6-3.1,3.5l-2.2,2.6l-0.2,0.3l-0.3,0.3l-0.4,0.5l-0.4,0.5l0.1,0.3
		c-0.4,0.5-0.6,0.8-0.8,0.9L99.4,62L99,62.4c-0.2,0.2-0.5,0.6-0.8,1.2c0,0.3-0.2,0.7-0.4,1.1c-0.2,0.4-0.4,0.9-0.5,1.5
		c-0.3,1-0.3,1.9-0.1,2.3l0.1,0.6c0,0.3,0.1,0.6,0,0.6c0.2,0.1,0.3,0.4,0.5,0.8c0.2,0.3,0.4,0.7,0.7,1c0.1,0.1,0.1,0,0,0
		c-0.1-0.1-0.1-0.2-0.2-0.3c0.4,0.4,0.8,0.8,1.3,1.2c0.3,0.2,0.4,0.4,0.4,0.4c0,0-0.2,0-0.5-0.2l0.9,0.6l0.6,0.3l0.7,0.3
		c0.3,0.1,0.5,0.2,0.8,0.3c0.3,0.1,0.6,0.2,1,0.2c0.7,0.1,1.5,0.1,2.4,0.1l1.3-0.1l1.3-0.1l1.7-0.2l1.6-0.2l0.4,0l0.3,0h0.1l0-0.5
		v-0.1l0,0.7h0.4l6-0.1l4,0.1c-0.4-0.2-1.3-0.1-1.7-0.4c0.8-0.1,1.2,0.1,1.6,0c0.1,0.2,0.6,0.3,1.1,0.3c0.5,0.1,1.1,0.1,1.3,0.3
		l0.3-0.2l0.4,0.2l2.1,0l1.7,0.3c1.7,0.2,2.5,0.1,3.3,0.5c-0.1,0-0.4-0.3,0-0.2c0,0.1,0.3,0.1,0.5,0.2c0.3,0.1,0.5,0.1,0.6,0.3
		l0.3,0.1l0.4,0.1c0.2,0.1,0.4,0.1,0.3-0.1c0,0.1,0.3,0.3,0.3,0.4c0.1,0.1,0.1,0.2-0.1,0.1l0.1,0.1l0.1,0.1l0.1,0v-0.1
		c0.1,0.1,0.1,0.1,0.1,0.2c0,0.1,0,0.1,0.1,0.2l0.1-0.1c0,0.1,0,0.3-0.3,0.3l0-0.1l0,0.1l-0.1,0.2l-0.6,1.1l0.2-0.3
		c-0.1,0.3-0.5,0.9-1.2,1.7l-1.1,1.3l-0.3,0.4l-0.2,0.2l-0.1,0.2l-0.6,0.7l-1.2,1.4l-1.2,1.2l-0.9,1l-0.6,0.7l0.7-0.3l-0.9,1
		c0.1-0.1,0-0.9,0.2-0.9c-0.5,0.4-1.6,1.4-3,2.5l-1.1,0.9l-1.2,0.9l-1.3,0.9l-1.3,0.9c-3.5,2.5-7.3,4.9-8.4,5.5
		c-1,0.5-0.3-0.2-0.3-0.2c-1.1,0.8-0.4,0.5-1.3,1.1c-0.3,0.1,0-0.2,0.1-0.3c-0.4,0.3-0.8,0.5-0.8,0.5c0.5-0.3,0.5,0.1,0.8,0.1
		l-1.2,0.7l0-0.2c-0.3,0.2-0.4,0.8-1.7,1.5c-2.1,1.3-4.2,2.6-6.3,4c0-0.1,0.4-0.4,0.8-0.8c-0.3,0.2-0.7,0.5-0.9,0.6
		c0.6-0.2-0.8,0.7-0.4,0.5c-1.2,1.3-3.4,2.3-4.5,3.5l0.5,3.6c0.3,1.7,0.7,3.4,0.8,3.6l-0.9,0.6c0.1,0,0.9-0.5,1.2-0.8l-0.1-0.2
		c0.8-0.7,0.3,0,1.1-0.7c0.1,0.1-0.6,0.8-1.3,1.3c0.6-0.5,1.3-0.8,1.5-1.2c0.7-0.4,0.1,0.2,0.8-0.2c0.5-0.4,1.1-1.1,1.7-1.4v0
		c0.7-0.4,1.3-0.8,1.8-1.3c0.5-0.4,1-0.9,1.7-1.2l-0.1,0.1c0.5-0.2,1.4-1,2.4-1.5c-0.3,0.1-0.6,0.1,0-0.2c1.1-0.5,1.7-1.1,2.6-1.5
		l0.6-0.6c1.8-1.1,6.3-4,10.9-7.1l1.7-1.2l1.6-1.2c1.1-0.8,2.1-1.6,3-2.3c1.9-1.5,3.4-2.7,4.2-3.5l-0.1,0.1c1.3-1.1,3-2.6,4.6-4.4
		l1.3-1.4l0.3-0.4l0.3-0.3l0.6-0.7c0.8-0.9,1.8-1.9,2.7-3.2c0.6-0.8,1-1.6,1.4-2.4c0.5-1.1,0.7-2.2,0.7-3.4c0-1.1-0.3-2.3-0.8-3.2
		C142.7,72.1,142.6,71.9,142.4,71.6L142.4,71.6z M182.7,32.2c0.6-2.1,1.5-4.1,2.1-6.2c0.1-0.4,0.4-0.8,0.5-0.9
		c0.3-0.7,0-0.4,0.2-0.9h0.2c0-0.8,0.5-1,0.6-1.7c-0.1-0.1,0-0.3,0.1-0.5c0.2,0,0.2-0.7,0.4-0.7l0.1-0.4l0.1-3.3l0.1-0.1
		c0.1-0.4,0-0.6-0.1-0.4l0.1-0.5v0.1l0.1-0.5c0-0.1,0.2-0.1,0.2,0c0-0.3,0-0.6,0.1-0.8c-0.3,0.7-0.8,1.6-1.2,2.3
		c0-0.3,0.3-0.9,0.4-1.2c0.3-0.4,0.6-1.2,0.9-1.8c0-0.1-0.2-0.3,0-0.6c0.2-0.1,0.1-0.4,0.3-0.6c0,0.3-0.1,0.6-0.2,0.9
		c0.2,0,0.4-0.7,0.5-1c0-0.1,0.2-0.7,0.3-1.1c0.1,0.1,0.1,0,0.2-0.2v-0.1V12l0.1-0.3c0.1-0.3,0.1-0.4,0-0.4c0,0-0.1,0-0.1,0.1
		c0-0.7,0-1.4,0-1.3c0,0.1-0.1,0.1-0.1,0l0-0.1c0,0-0.1-0.1-0.1,0l0,0.1c-0.4,1.1-0.8-1.3-1.2,0c0.4-0.5,0.2,0.3,0,0.9
		c-0.1,0-0.3,0.3-0.5,0.7c-0.1,0.4,0,0.3,0.1,0.3c-0.1,0.2-0.3,0.6-0.4,0.5c0.1,0.3-0.2,0.4-0.3,0.8c0,0.3,0.1,0,0.1,0.2l-0.5,1.5
		c-0.1,0.1-0.5,0.5-0.6,0.1c0.2-0.7,0.2,0.4,0.4-0.4c-0.4,0.3,0.1-0.7-0.1-0.8c-0.2,0.2-0.3,0.7-0.4,1.1l0.1-0.1
		c-0.1,0.5-0.2,0.9-0.4,1.4c-0.1-0.1-0.2,0-0.1-0.2l-0.1,0.5c0,0.1,0,0.1,0.1,0c0,0.3-0.1,0.5-0.2,0.6c-0.1,0-0.3,2.7-0.3,2.6
		l-0.1,0.4c0.2-0.9,0.5-2.9,0.4-2.5c-0.2,0.3-0.6,4-0.8,4.2c-0.1,0.3-0.1,0.6,0,0.5c-0.2,0.4-0.1-0.2-0.3,0.1c0,0,0.1,0,0,0.1
		l-0.2,0.3c0,0.7-0.5,1.6-0.5,2.4c0-0.2-0.2-0.5-0.1-1l0.1-0.1c0-0.1,0.1-0.4,0-0.5c-0.2,0.4-0.3,0.8-0.3,1.3l-0.1,0.2h0
		c-0.1,0.1-0.1,0.1-0.1,0v0c-0.4,0.2-0.3,1.7-0.7,2.5c0,0.3,0,0,0,0.3c-0.3,0.8-0.6,1.3-0.9,2.1c0,0.3,0.1,0.3,0.3,0l-0.2,0.6
		c-0.2-0.7-0.7,1.1-0.8,0.4c-0.1,0.1-0.3,0.5-0.3,0.9c0.1,0.1,0.2,0.1,0.1,0.6l-0.4,0.9c-0.1,0.1-0.1-0.1-0.2-0.1
		c-0.1,0.8-0.4,0.6-0.6,1.4c-0.1,0.5-0.3,1.4-0.1,1.5c-0.2,0.6-0.3,0.6-0.5,0.5l-0.1,0.5c0.4-1.7,1-3.4,1.5-5.1
		c-1.7,3.6-3.5,7.8-2.8,11.1c-0.8,0.1-2.1,3.6-2,3.8l-0.3,2.4c-0.7,5-2.4,10.3-4.1,15.7c-0.9,3-3.3,11.3-4.3,14.3l-0.4,1.3l0.5-1.5
		l-0.8,5.5c0.2-0.3,0.3-0.3,0.6-0.9l-0.3,0.8c0.1,0.9-0.4,2.7-0.4,3.5c-0.1-0.2-0.3,0.4-0.5,1l0.2-0.2c-0.6,2.2-1.2,4.8-1.7,6.8
		c-0.1,0.2-0.1,0.4-0.3,0.6l-0.4,1.9c-0.2-0.2-0.6,1.5-0.5,0.6c-0.1,1.5-0.6,2.9-0.7,4.3c-1.2,5-2.3,10.1-3.1,15.2l0.1-0.1
		c-0.3,1.8-0.2,3.5-0.9,5.6c-0.1,1.6-0.4,3.8-0.1,4.6c-0.4,1.8-0.3,2.6-0.6,4.3c0.3-0.4-0.1,1.7,0.3,0.9c0.6-1.1,0.3-1.2,0.8-2.1
		h-0.1c1.4-4.5,2.7-9,3.9-13.6c0.5-3.1,1.5-6.4,2.3-9.7c0.8-3.5,1.5-7.2,2.1-10.2c0.1-0.7,0.4-1.2,0.7-1.7c0.6-2.7,1.5-6.2,2.2-9.3
		l0,0.1c0.4-1.6,0.9-2.8,1.3-4.4c-0.1,0,0-0.3,0-0.4c0.4-0.2,1.8-9.5,2.1-10l0.1-0.5c1-3.3,2.5-6.6,3.2-9.5l0.1-2
		c0.3-0.5,0-0.6,0.2-1.2c1-1.4,1-2.4,0.6-1.6c0.3-1.3,0.7-2.6,0.9-3.7l0.3-1.6c0.1-0.5,0.2-0.7,0.4-0.9c0.2-1.2,0.3-0.8,0.7-2
		c0.3-0.2,0.5-3.1,0.7-3.5l0,0.2c0.4-1.4,1.1-2.2,1.5-3.6c1.2-3.8,2.1-7.9,3.2-11.4C183,31.4,183,32.3,182.7,32.2L182.7,32.2z
		 M188.3,11.9V12c0.1-0.1,0.2-0.6,0.3-0.8c-0.1,0-0.1,0.1-0.1,0v-0.3v-0.1l0-0.1l0-0.3l0.1-0.1l-0.1,0.3c0.1-0.2,0.1,0.4,0.1,0.9
		c-0.1,0.2-0.3,0.7-0.3,0.6v0.1l-0.1,0.1C188.3,12.2,188.3,12,188.3,11.9L188.3,11.9z M188.2,10.9c-0.1,0-0.1,0-0.1-0.1
		C188.1,10.7,188.2,10.7,188.2,10.9z"/>
	<path class="st1" d="M188.4,12.1V12V12.1L188.4,12.1L188.4,12.1z M188.7,12.2V12V12.2z M188.8,12.4c0,0,0,0,0-0.1
		C188.7,12.4,188.8,12.5,188.8,12.4z M180.5,109c0,0,0,0.1,0,0.3C180.6,108.9,180.5,108.8,180.5,109z M181,109.4v0.2l0-0.1
		L181,109.4L181,109.4z M180.6,109.3L180.6,109.3z"/>
	<path class="st1" d="M227.2,31.2c-0.5,2.3-0.3,2.4-0.7,4.3l0.1,0c-1.2,9-2.2,18.1-2.9,27.2c-0.2,6.2-0.8,12.8-1,19.2
		c-0.3,6.9-0.4,14.3-0.3,20.2c0,0.7,0,1.3-0.1,1.9l-0.2,1.7l0,1.8v2.1v0l0-0.1l-0.1-0.1l-0.1-0.2l-0.2-0.4l-0.5-0.8l0,0.1
		c-0.3-0.5-0.5-1-0.6-1.5l-0.1-0.3l0-0.1v0l0-0.1l-0.2-0.5l-0.9-2c0,0-0.3-0.4-0.4-0.6c0-0.3-2.1-4.4-4.3-8.6
		c-2.2-4.2-4.4-8.5-4.5-9l-0.5-0.9c-2.7-6.1-5-12.6-7.4-17.9c-0.6-1.1-1.3-2.3-1.9-3.2c-0.3-1-0.6-1.1-1.1-2.2
		c-0.7-3.1-1.6-4.7-1.2-3.1c-1.1-2.3-2.1-4.7-3-6.7l-0.4-0.8l-0.5-1.1l-1-2.2c-0.6-1.2-0.8-2-1.1-3c-1.5-3.2-1-2.5-2.6-6.4
		c-0.8-2.2-1.8-4.3-2.9-6.3V35v-0.8c-0.1,2.1-0.2,3.5-0.4,5.2c-0.1,1.6-0.3,3.4-0.4,5.8l-0.4,8.7l-0.3,5.9
		c-0.2,3.7-0.4,7.5-0.7,11.2c0.2,0.1,0-1.5,0.4-1.6c-0.3,4.1-0.9,8.3-1.3,12.4c-0.1,0.7-0.3,1.6-0.4,2c-0.2,1.3,0,0.8-0.1,1.7
		l-0.2,0.1c0,1.4-0.4,2-0.5,3.4c0.1,0.1,0,0.6,0,1.1c-0.2,0-0.1,1.5-0.3,1.4l-0.1,0.8l0.1,6.3l-0.1,0.3c-0.1,0.8,0,1.1,0.1,0.7
		l-0.1,0.9v-0.1l-0.1,0.9c0,0.2-0.1,0.4-0.2,0.1c0,0.5,0,1.1-0.1,1.7c0.3-1.5,0.7-3.3,1.1-4.8c0,0.7-0.2,1.8-0.3,2.5
		c-0.3,0.8-0.5,2.5-0.8,3.8c0,0.3,0.2,0.5,0,1.2c-0.2,0.3-0.1,0.7-0.3,1.3c0-0.6,0.1-1.2,0.2-1.9c-0.2,0.1-0.3,1.5-0.4,2
		c0,0.3-0.2,1.5-0.2,2.2c-0.1-0.2-0.1,0.1-0.2,0.5l0,0l-0.1,0.5c-0.1,0.5-0.1,0.8,0,0.7c0,0,0.1,0,0.1-0.2c0,1.2,0,2.7,0.1,2.4
		c0-0.1,0.1-0.2,0.1-0.1l0,0.1c0,0.1,0.1,0.1,0.1-0.1l0-0.2c0.3-2.3,0.9,2.1,1.3-0.5c-0.4,1.1-0.2-0.4-0.1-1.6
		c0.1-0.1,0.3-0.6,0.5-1.5c0.1-0.7,0-0.4-0.1-0.6c0.1-0.4,0.3-1.2,0.4-1.1c-0.1-0.6,0.2-0.9,0.3-1.6c0-0.6-0.1,0-0.1-0.4l0.4-3
		c0.1-0.3,0.5-1.1,0.6-0.5c-0.2,1.4-0.3-0.6-0.4,0.9c0.3-0.6-0.1,1.3,0.1,1.6c0.2-0.4,0.3-1.4,0.3-2.2l0,0.1c0-0.7,0.1-2.1,0.4-2.8
		c0.1,0.2,0.2-0.1,0.1,0.4l0.1-0.9c0-0.1,0-0.3-0.1,0c0-0.5,0.1-0.9,0.1-1.2c0.1-0.1,0.1-5.1,0.1-5l0.1-0.7v0.2
		c0,0.7-0.1,1.5-0.1,2.2l-0.1,2.6c0.2-0.6,0.3-7.8,0.5-8.2c0-0.5,0.1-1.1,0-1c0.1-0.9,0.2,0.3,0.3-0.3c0,0-0.1,0,0-0.1l0.2-0.6
		c0-1.3,0.3-3.3,0.3-4.7c0.1,0.4,0.2,0.9,0.3,1.8l-0.1,0.1c0,0.1,0,0.9,0.1,0.9c0.1-0.8,0.2-1.6,0.2-2.5l0.1-0.5h0
		c0.1-0.3,0.1-0.3,0.1-0.1v0.1c0.4-0.5,0.1-3.4,0.4-5c0-0.5,0,0-0.1-0.6l0.6-4.4c-0.1-0.5-0.1-0.6-0.3,0l0.1-1.3
		c0.3,1.2,0.5-2.3,0.8-1.1c0.1-0.4,0.2-1.1,0.1-1.8c-0.1-0.1-0.2-0.2-0.1-1.1l0.3-2c0.1-0.2,0.1,0.1,0.3,0.1c0-1.6,0.3-1.4,0.4-2.9
		c0-0.9,0.1-2.8-0.1-2.8c0.1-1.3,0.2-1.2,0.4-1.1l0.1-1l-0.3,5.1l-0.4,5.2c0.6-3.9,1.1-7.8,1.3-11.7l0.1-1.5l0-0.7v-0.4l-0.1-0.9
		l-0.1-0.5l-0.1-0.3l-0.1-0.3l-0.4-1.7c0.2,0.5,0.4,0.8,0.6,1.1c0.1,0.3,0.3,0.6,0.3,0.8c0.1,0.3,0.1,0.4,0.1,0.1
		c0-0.4,0-0.6,0.1-0.5c0.1,0,0.2,0.2,0.4,0.4l0.3,0.4l0.1,0.1l0,0.1l0,0.1l0.4,0.9c3.2,7.3,6.3,14.6,9.4,22l5.8,13.2
		c2.3,5.2,4.7,10.4,5.9,13.3l1.1,2.5l-1.2-2.8l2.6,4.8l0.6,1.2l0.3,0.6l0.1,0.3l0.3,0.5l2,3.9l-0.5-1.3l-0.8-2.2l1.2,2.6
		c0.9,1.4,1.7,2.9,2.4,4.3c0.9,1.7,1.7,3.4,2.3,4.3c-0.2,0,0.8,2,1.6,3.8l-0.4-1.1l0.4,0.8l0.2,0.4l0.1,0.2l0,0.1l0,0
		c0.1-3.2,0.1-6.7,0.1-10l0-4.8l0-2.3l0-1.9c0-0.5,0.1-0.9,0.1-1.2l0-3.8c0.2,0.3,0.3-3.1,0.4-1.3c-0.2-2.8,0.1-5.7-0.1-8.5l1.1-30
		l-0.1,0.3l0-5.2c0-1.7,0.1-3.6,0.3-5.7c-0.1-3.1,0.2-7.4-0.2-8.6c0.3-3.5,0.1-4.9,0.4-8.4C227.2,33.8,227.6,29.5,227.2,31.2
		L227.2,31.2z M181,109.9v-0.2c-0.1,0.3-0.2,1.2-0.3,1.7c0.1,0,0.1-0.2,0.1-0.1v0.8l0,0.1l0,0.5l-0.1,0.3l0.1-0.5
		c-0.1,0.4-0.1-0.7-0.1-1.7c0.1-0.4,0.3-1.3,0.3-1.2v-0.1l0.1-0.3L181,109.9L181,109.9z M181.2,111.7c0.1-0.1,0.1,0,0.1,0.1
		C181.2,112,181.2,111.9,181.2,111.7z M264.6,8.4V8.2V8.4z M264.2,8.3V8.2V8.3L264.2,8.3L264.2,8.3z"/>
	<path class="st1" d="M251.3,57.3c0.3-1.4,0.7-2.7,1-3.9l0.3-1.7c0.1-0.5,0.2-0.7,0.4-0.9c0.3-1.2,0.3-0.8,0.7-2.1
		c0.3-0.3,0.5-3.3,0.7-3.7l0,0.2c0.4-1.5,1.1-2.4,1.5-3.8c1.2-4,2.2-8.5,3.2-12.2c-0.2-0.1-0.2,0.8-0.5,0.8c0.6-2.2,1.5-4.4,2.1-6.6
		c0.1-0.4,0.3-0.7,0.5-1c0.3-0.7,0-0.4,0.2-0.9l0.2,0c0-0.8,0.5-1.1,0.6-1.8c-0.1-0.1,0-0.3,0.1-0.6c0.2,0,0.2-0.8,0.4-0.7l0.1-0.4
		c0-0.3,0.1-3.2,0.1-3.5l0.1-0.1c0.1-0.4,0-0.6-0.1-0.4l0.1-0.5v0.1l0.1-0.5c0-0.1,0.2-0.2,0.2,0c0-0.3,0-0.6,0.1-0.9
		c-0.3,0.8-0.8,1.7-1.2,2.5c0-0.4,0.3-0.9,0.4-1.3c0.3-0.4,0.6-1.3,0.9-2c0-0.1-0.2-0.3,0-0.7c0.2-0.1,0.1-0.4,0.3-0.7
		c0,0.4-0.1,0.7-0.2,1c0.2,0,0.3-0.8,0.5-1.1c0-0.1,0.2-0.8,0.3-1.2c0.1,0.1,0.1,0,0.2-0.2V8.2v0.1l0.1-0.3c0.1-0.3,0.1-0.5,0-0.4
		c0,0-0.1,0-0.1,0.1c0-0.7,0-1.5,0-1.3c0,0.1-0.1,0.1-0.1,0l0-0.1c0,0-0.1-0.1-0.1,0l0,0.1c-0.4,1.2-0.8-1.3-1.2,0
		c0.4-0.5,0.2,0.3,0.1,0.9c-0.1,0-0.3,0.3-0.5,0.7c-0.1,0.4,0,0.3,0.1,0.4c-0.1,0.2-0.3,0.6-0.4,0.5c0.1,0.4-0.2,0.5-0.3,0.9
		c0,0.4,0.1,0,0.1,0.3l-0.5,1.6c-0.1,0.1-0.5,0.5-0.6,0.1c0.2-0.7,0.2,0.4,0.4-0.4c-0.4,0.3,0.1-0.7-0.1-0.9
		c-0.2,0.4-0.4,0.8-0.4,1.2l0.1-0.1c-0.1,0.4-0.2,1.1-0.4,1.5c-0.1-0.1-0.2,0-0.1-0.3l-0.1,0.5c0,0.1,0,0.1,0.1,0
		c0,0.3-0.1,0.5-0.2,0.7c-0.1,0-0.3,2.8-0.3,2.7l-0.1,0.4c0.1-0.9,0.3-1.8,0.4-2.7c-0.2,0.3-0.6,4.3-0.8,4.5c-0.1,0.3-0.1,0.6,0,0.6
		c-0.2,0.4-0.1-0.2-0.3,0.1c0,0,0.1,0,0,0.1l-0.2,0.3c0,0.8-0.5,1.7-0.5,2.6c0-0.3-0.2-0.5-0.1-1.1l0.1-0.1c0-0.1,0-0.5,0-0.5
		c-0.2,0.4-0.3,0.8-0.3,1.3l-0.1,0.3h0c-0.1,0.1-0.1,0.1-0.1,0v0c-0.4,0.2-0.3,1.9-0.7,2.7c0,0.3,0,0,0,0.4
		c-0.3,0.8-0.6,1.4-0.9,2.3c0,0.3,0.1,0.4,0.3,0l-0.2,0.7c-0.2-0.7-0.7,1.2-0.8,0.4c-0.1,0.2-0.3,0.6-0.3,1c0.1,0.1,0.2,0.1,0.1,0.6
		l-0.4,1c-0.1,0.1-0.1-0.1-0.2-0.1c-0.1,0.9-0.4,0.7-0.6,1.5c-0.1,0.5-0.3,1.5-0.1,1.6c-0.2,0.7-0.3,0.6-0.5,0.5l-0.2,0.5
		c0.4-1.8,1-3.6,1.6-5.4c-1.7,3.8-3.5,8.4-2.9,11.8c-0.8,0.1-2.2,3.9-2,4c-0.1,0.8-0.2,1.7-0.3,2.5c-0.8,5.4-2.6,10.9-4.4,16.7
		c-1,3.2-3.5,12-4.7,15.2l-0.5,1.4l0.6-1.6c-0.4,2.1-0.7,4-1,5.8c0.2-0.3,0.3-0.3,0.7-1l-0.3,0.9c0.1,0.9-0.4,2.8-0.5,3.8
		c-0.1-0.2-0.3,0.5-0.5,1.1l0.2-0.2c-0.7,2.3-1.3,5.1-1.9,7.2c-0.1,0.3-0.2,0.5-0.3,0.6l-0.4,2c-0.2-0.2-0.7,1.6-0.5,0.6
		c-0.1,1.6-0.7,3.1-0.9,4.6c-1.5,5.3-2.7,10.7-3.9,16.1l0.1-0.1c-0.4,1.9-0.4,3.7-1.2,5.9c-0.1,1.7-0.7,4-0.4,4.8
		c-0.5,1.9-0.4,2.7-0.8,4.6c0.4-0.4-0.2,1.9,0.2,1c0.7-1.1,0.4-1.3,0.9-2.2h-0.1c1.7-4.7,3.2-9.5,4.7-14.3c0.7-3.3,1.9-6.8,2.7-10.2
		c0.9-3.7,1.9-7.7,2.6-10.8c0.1-0.8,0.5-1.2,0.8-1.9c0.7-2.9,1.7-6.6,2.5-9.8l0,0.1c0.4-1.7,1-3,1.4-4.7c-0.1,0,0-0.3,0-0.4
		c0.4-0.2,2.1-10.1,2.4-10.6l0.1-0.5c1.1-3.5,2.7-7.1,3.4-10.1l0.1-2.1c0.3-0.5,0-0.7,0.3-1.3C251.7,57.5,251.7,56.5,251.3,57.3
		L251.3,57.3z M264.2,8v0.1c0.1-0.1,0.2-0.6,0.3-0.9c-0.1,0-0.1,0.1-0.1,0.1V7V6.9l0-0.1l0-0.3l0.1-0.1l-0.1,0.3
		c0.1-0.2,0.1,0.4,0.1,1c-0.1,0.2-0.3,0.7-0.3,0.6v0.1l-0.1,0.1C264.2,8.4,264.2,8.2,264.2,8L264.2,8z M264.1,7
		c-0.1,0-0.1,0-0.1-0.1C264,6.8,264,6.8,264.1,7z"/>
	<path class="st1" d="M264.6,8.6c0,0,0,0,0-0.2C264.6,8.6,264.6,8.7,264.6,8.6z M267.7,42.8c0.4-0.9,0.8-2,1.2-3.4
		C268.5,40.1,268.1,41.4,267.7,42.8z M267.7,42.8C267.7,42.8,267.7,42.8,267.7,42.8z M316.3,25.6l0.3-1.1L316.3,25.6z M311.4,66.8
		c0.7-1.9,0.4-0.3,0.4-0.2c0.6-2.3,0.1-1.1,0.7-3c0.2-0.5,0.1,0.1,0.1,0.5c0.3-0.9,0.5-1.6,0.5-1.7c-0.4,1.1-0.5,0.5-0.8,0.9
		l0.8-2.5l0.1,0.1c0.2-0.5,0-1.5,0.8-4c1.3-4.1,2.7-8.6,4-12.8c0.1,0.1-0.1,1-0.4,1.9c0.2-0.5,0.4-1.4,0.6-1.9
		c-0.5,0.9,0.4-1.8,0.1-1c0.5-3.2,2.1-7,2.7-9.8c-0.3-0.3-4.1-7.5-4.5-7.7c-0.1,0.3-0.2,0.5-0.3,0.8l0.2,0.2c-0.5,2-0.3,0.4-0.9,2.4
		c-0.2,0,0.3-1.8,0.8-3.4c-0.5,1.4-1,2.8-1,3.5c-0.5,1.3-0.2-0.2-0.7,1.4c-0.3,1.2-0.6,2.7-1.1,4l0,0c-1.2,3.2-1.2,5-2.3,7.9l0-0.3
		c-0.4,1-0.9,3.1-1.6,5c0.2-0.5,0.5-0.9,0.1,0.2c-0.8,2.1-1.1,3.6-1.7,5.2l-0.3,1.6c-2.3,7.5-11.2,37.4-13.4,44.9l0.1-0.3l-0.3,1.1
		l-0.2,0.6v0.1l-0.1,0.3l-0.2,0.7l-0.3,0.9l-0.2-0.8l-0.3-0.9l-0.1-0.2v-0.1l-0.1-0.3l-0.2-0.8l-0.8-3.2L289,85.1
		c-0.1-0.9-0.3-2.1-0.5-3.2l-0.3-1.6l-0.1-0.5l-0.1-0.7l-0.3-1.4c0.3,2.1,0,1.4-0.2-0.1l-0.1-1l-0.1-0.9l-0.1-1.5l-0.1-2l0.1-1.3
		v-0.3V70l0.1-0.7l0.3-3l0.7-6.6l0.5-4.9l-0.5,0.8l-0.4,0.6l-0.4,0.6l-0.1,0.1l-0.1,0.1l-0.1,0.2l-0.3,0.4l-0.1,0.1l-0.1,0.1
		l-0.1,0.1l0,0l0,0l0,0l-0.5,0.8l-4.7,7.6c-1.7,2.8-3.5,5.6-5.5,8.6l-2.4,3.6l-1.7,2.5c-3.3,4.9-6.5,9.7-8.7,12.9l1.4-6.9l-0.1,0.5
		c0.6-3.6,0.8-3,1.5-5.8c-0.4,0.3,0.1-2.8,0.4-3.9l0,0.1c0.3-1.7,1-5.7,1.6-8.6l0.1,0.1c0.4-2.4,1.6-6.9,2-8.6
		c1.1-3.9,2.9-9.8,4.2-15l1.4-3.2l0.1-0.5c0,0-0.9-1.7-2.3-2.7c-1.3-0.9-3.1-1.1-4.6,2.2l-0.1-0.1l-0.4,1.4
		c-0.5,1.6-0.6,2.4-0.7,2.3l0.7-2.3c-0.5,1.6-0.3,0.5-0.2-0.2c-0.2,0.7-0.4,1.3-0.6,1.9c0,0.3,0.1-0.2,0.3-0.5
		c-0.2,0.9-0.4,2.2-0.8,3.2c-0.5,1.7-0.3,0-0.8,2c-3,10.4-5.6,20.5-7.9,31.2c-0.1,0.2,0-0.1,0-0.4l-0.9,4.6l-0.8,4.4
		c-0.2,0.8-0.4,1-0.5,1.2c0.1-0.2-0.7,3.8-1.4,8c-0.5,2.9-1,5.7-1.5,8.6l0.3,0.3c-0.4,2.4-0.5,1.7-0.7,2.5l0.9,0.1v0.1v0.9l0,0.2
		l0.2,0.6c0.2,0.4,0.4,0.8,0.7,1.1l4.6,4.4l0.9-5.6l0.5,0.3l0.1,0.1l0.1,0l0,0l0.3-0.6c0.1-1.1,2.6-4,3-5c0,0,0.8-1.2,0.9-1
		c0.1-0.5,0.8-1.3,1.2-2.1c0.1-0.3-0.2,0.2-0.4,0.3l1.1-1.8c0.5-0.7,0.7-0.7,0.3,0c1.5-2.3,6-8.9,10.5-15.6l3.2-4.7l0,0l0.1-0.1
		l0.1-0.3l0-0.4l0.1-0.3l0.1-0.3l-0.2,1l-0.1,0.5l0.1-0.4l-0.1,0.3c0-0.1,0.1,0,0.1,0l0,0l0,0.1v0.1l0.2,1c0.8,3.4,1.5,5,1.7,6.9
		c0-0.3-0.1-0.9,0.2-0.1c-0.1,0.2,0.7,2.4,0.6,2.8c0.2,0.9,0.8,3.7,0.9,2.7c0,0.5,0.5,3.1,0,1.6c0.2,0.9,0.3,1.7,0.5,2.3l-0.2-1.1
		c0.4,1.4,0.6,2.6,0.8,3.6l0.2,0.7l0.3,1.3c0.2,0.8,0.4,1.7,0.7,2.5l-0.4-2c0.8,3.1,1.4,5.6,1.5,7.3l-0.9-3.2l0.9,3.7l0.8,3.1
		l1.6,5.8l-0.4-1.6l2,7.1l0.7,2.6l0.2,0.7l0,0.2v0.1l0-0.1l0.1-0.4l0.4-1.5c0.6-2.1,1.2-4.2,1.9-6.2l1.8-6.1l1.6-5.5l1.9-7.1l-0.8,2
		l0.5-1.9l0.1-0.5l0.1-0.3l0.1-0.6c0,0.1,0,0.5,0.1,0.8l0,0.3v0.3l0,0.4l5.5-18.3C308.2,76.8,310.5,69.1,311.4,66.8L311.4,66.8z
		 M300.3,103l0,0.1L300.3,103z"/>
	<path class="st0" d="M282.3,89.5L282.3,89.5"/>
	<path class="st1" d="M327.9,31.4c-0.2,0.1-0.2,0.3-0.3,0.5C327.7,31.7,327.9,31.6,327.9,31.4z"/>
	<path class="st1" d="M335.9,72.9l0.2-0.4l0.2-0.2l0.1-0.1h0.1c0,0,0,0,0.1,0l0.1-0.1l0.1-0.3c0.3-0.7,0.2-1.5,0.3-2.1h0
		c0.1-0.4,0-0.8,0-1.2c-0.1-0.5-0.1-0.4-0.2-0.5c-0.1-0.1-0.2-0.3-0.1-0.5l0.1,0c0-0.1,0-0.3-0.1-0.5l0.2-0.3l1.1-1.6l1.6-2.2
		c0.4-1.1,1.4-2.2,1.9-3.2v0.1c0.6-1.1,4.7-6.6,5.4-7.8l-0.1,0.1c0.6-1.1,0.7-0.8,1.3-1.5c-0.3-0.1,0.1-1,0.4-1.4l0,0
		c0.3-0.5,0.9-1.8,1.5-2.6l0.1,0.1c0.4-0.8,1.3-2,1.7-2.5c0.9-1.1,2.4-2.6,3.3-4.2l1.1-0.7l0.1-0.2c0,0-0.8-1.2-1.9-2.3
		c-1.1-1.1-2.5-2-3.8-1.4l-0.1-0.1l-0.3,0.4c-0.4,0.4-0.4,0.8-0.5,0.6l0.5-0.6c-0.4,0.4-0.2,0.1-0.1-0.2c-0.1,0.2-0.3,0.3-0.5,0.5
		c0,0.1,0.1,0,0.2-0.1c-0.1,0.3-0.3,0.7-0.6,1c-0.4,0.5-0.2-0.1-0.7,0.4l-3.4,4.3c-1.1,1.4-2.2,2.9-3.3,4.4c-0.1,0,0,0,0-0.1
		c-0.6,0.9-1.2,1.7-1.7,2.7c-0.2,0.2-0.4,0.2-0.4,0.2c0.1,0-0.7,1.2-1.5,2.4l-1.1,1.7l-0.5,0.8l0.2,0.2c-0.6,0.9-0.5,0.1-1,1
		c0.1,0.5-0.8,1.2-0.9,1.7l-0.1-0.8l-0.3-1.9l-0.3-1.6c0.1-0.3,0.1-0.7,0.1-0.9c-0.1,0.1-0.2,0.1-0.2,0c0-0.9-0.1,0-0.3-0.9
		c-0.1-0.5-0.1-1.7-0.1-3l0.1-1.7c0-0.5,0.1-0.9,0.1-1.1c-0.3-0.5-0.1-1.1-0.2-1.6l0.1,0c0-0.3,0-1.1,0.1-2c0.1-0.9,0.2-1.7,0.1-2
		l0,0.1c-0.1-0.5,0.1-0.4,0.3-0.8c-0.3,0-0.4-0.4-0.4-0.6h0.1c0-0.3-0.3-0.9-0.3-1.3l0.1,0c-0.1-0.4,0-1,0-1.3
		c0.1-0.6,0.5-1.4,0.4-2.2l0.5-0.4l0-0.1c0,0-1.3-0.4-2.9-0.7c-1.5-0.3-3.2-0.5-3.9,0l-0.1,0v0.2c-0.1,0.3,0.1,0.4-0.1,0.4l0.1-0.4
		c-0.1,0.3-0.1,0.1-0.2,0l-0.1,0.3c0.1,0.1,0.1,0,0.1-0.1c0,0.1,0.2,0.4,0.1,0.5c0,0.3-0.3,0-0.3,0.3c-0.3,1.6-0.7,3.2-0.8,4.8
		c-0.1,0-0.1,0-0.1-0.1c0,0.5,0,0.9,0,1.4c-0.1,0.1-0.2,0.1-0.3,0.2c0.1,0,0.1,0.6,0,1.2l-0.1,1.3l0.3,0c0,0.5-0.3,0.1-0.3,0.6
		c0.4,0.2-0.1,0.8,0.1,0.9c0,0,0,0.2-0.2,0.2c0.2,0.1,0,0.2,0.1,0.4c0.1,0,0.1,0,0.1-0.1l0.1,0.3c-0.1,0.1-0.2,0.1-0.2,0
		c-0.1,0.8-0.3,4.9-0.1,5.8c0.2-0.1,0-0.4,0.3-0.5c0.1,0.2,0,0.4,0.1,0.4c-0.4,0.1-0.1,0.5-0.5,0.7l0.2,0.1l-0.1,0.1
		c0.3,1.1,0.1,0.2,0.1,1.2c0.1,0.5,0.4,0.8,0.3,1.1c0,0,0.1-0.2,0.2,0c-0.2,0,0.2,0.4,0,0.4c0,0.1,0,0.6,0.3,0.4
		c-0.1,0.1-0.1,0.5-0.3,0.3c0,0.1,0,0.3,0,0.4l0.1-0.2c0.1,0.4-0.1,0.7,0.1,1l0.1-0.2c0,0.3,0.1,0.5-0.2,0.6l-0.1-0.3
		c0,0.4,0.1,0.7,0.3,1.1v-0.1c0.1,0.2,0.3,0.9,0.5,1.7s0.4,1.4,0.6,1.6l0.2-0.2l0.2,0.4c0,0-0.7-0.1-0.6-0.1l0.5,2.8l0.4,2.4
		l-1.2,1.9l-1.3,2.3c0.3-0.1,0.5-0.7,0.9-0.8c-0.1,0.5-0.5,0.7-0.4,0.9c-0.4,0-0.7,1-1.2,1.1l0.1,0.3l-0.3,0.1
		c-1,2.1-0.2,0.5-1.3,2.3c-0.6,1.1-0.6,1.7-1.1,2.3c0-0.1,0.3-0.3,0.2,0c-0.2,0-0.3,0.8-0.5,0.8c-0.1,0.3-0.7,1.1-0.3,1
		c-0.2,0.1-0.7,0.8-0.5,0.3c-0.1,0.3-0.3,0.5-0.4,0.7l0.3-0.3c-0.5,0.9-0.9,1.3-1.1,2l0.3-0.3c-0.3,0.5-0.5,1-0.9,1.1l0.3-0.6
		c-0.4,0.7-0.8,1.4-1.1,2.2l0.1-0.3c-0.1,0.5-0.8,2-1.5,3.6c-0.6,1.1-1,2.3-1.5,3.5l0.4-0.3l-0.3,0.8c0-0.1-0.4-0.7-0.3-0.7
		c-0.9,1.6-5.1,10.1-5.9,11.6c-0.4,0.5-0.4,0-0.4-0.1c-0.3,0.8,0,0.4-0.3,1.1c-0.1,0.1-0.1-0.1-0.1-0.2c-0.1,0.3-0.3,0.5-0.2,0.6
		c0.3-0.3,0.4,0,0.6-0.1l-0.4,0.8l-0.1-0.1c-0.1,0.2,0.2,0.7-0.3,1.4c-0.7,1.3-1.3,2.8-2,4.2c-0.1-0.1,0-0.4,0.1-0.7l-0.3,0.6
		c0.3-0.3-0.2,0.6,0,0.4c-0.1,1.2-1,2.3-1.2,3.3c0.3,0.2,4.7,4.4,5.1,4.6c-0.1,0.3-0.3,0.5-0.3,0.6c0.1,0,0.4-0.5,0.5-0.8l-0.2-0.1
		c0.2-0.7,0.2-0.1,0.5-0.7c0.2,0,0,0.7-0.3,1.2c0.2-0.4,0.6-0.9,0.5-1.1c0.3-0.4,0.2,0.1,0.5-0.4c0.1-0.4,0.2-0.9,0.5-1.3l0,0
		c0.7-0.9,0.5-1.7,1.1-2.6v0.1c0.3-0.3,0.4-1,0.8-1.6c-0.1,0.1-0.3,0.3-0.1-0.1c0.4-0.7,0.5-1.2,0.9-1.6l0.1-0.5l1.4-2.9l2-4.3
		l2.1-4.2l1.5-2.9l0,0.1l0.8-1.5l0.9-1.8l2.2-4l2.2-4l1.8-3.4c0.5-0.5,0.9-1.3,1.3-1.8c-0.3,0.3-0.3,0.1-0.1-0.1
		c1-1.7,0.1-0.4,0.8-1.7h0.4l0.3,0l0.4-0.1l-0.3,0l-0.3,0h-0.4l0.1-0.1h0.6l0.3,0c0.3-0.1,0.7-0.1,0.9-0.3l0.1-0.3
		c0.5-0.3,0.7-0.4,0.9-0.5l0.3-0.1l0.2-0.1c0.1-0.1,0.3-0.3,0.5-0.6c0.1,0,0,0.3-0.4,0.8l-0.2,0.2l-0.2,0.2l-0.5,0.4
		c-0.4,0.3-0.9,0.4-1.4,0.5c0.6-0.1,1.3-0.3,1.8-0.7l0.4-0.3C335.6,73.2,335.8,73.1,335.9,72.9L335.9,72.9z M333.5,73
		c-0.2,0.7-0.6,1.2-0.6,1.3l-0.7,0h-0.1l0.1-0.1l1.4-2.4C333.6,72.3,333.6,72.7,333.5,73z"/>
	<path class="st1" d="M351,34.6c-0.3,0.1-0.6,0.5-0.9,0.9C350.4,35.2,350.7,35,351,34.6z"/>
	<path class="st1" d="M350.1,35.4C350.1,35.5,350.1,35.4,350.1,35.4z M310.8,116.3c-0.1,0.1-0.1,0.2-0.1,0.4L310.8,116.3z
		 M395.5,33.5l0.3,0.1l0.7,0.2c-0.3-0.2-0.6-0.4-1.1-0.5l-1.4-0.4l1.1,0.4L395.5,33.5z M394,33C394,33,394,33,394,33z"/>
	<path class="st0" d="M385.1,94"/>
	<path class="st1" d="M385.1,94L385.1,94L385.1,94L385.1,94z M385.1,94C385.1,94,385.1,94,385.1,94z"/>
	<path class="st0" d="M335.3,87.5L335.3,87.5"/>
	<path class="st1" d="M367.1,93.7c0.3,0.1,0.7,0.1,1.1,0.1C367.9,93.7,367.5,93.7,367.1,93.7z M368.2,93.9
		C368.2,93.9,368.2,93.8,368.2,93.9C368.2,93.8,368.2,93.8,368.2,93.9z M378.1,138.7L378,139L378.1,138.7z"/>
	<path class="st1" d="M397.7,82.4c-1.1,0.3-2.1,0.5-3.1,0.7c-1,0.2-2,0.4-3,0.6l0.2-0.1l-2.8,0.5l-4.4,0.7l-4.2,0.5h0.2
		c-1.1,0.3-0.9,0-1.8,0c0.1,0.3-0.7,0.5-1.1,0.6v-0.1c-0.5,0.1-1.7,0.5-2.6,0.7v-0.2c-0.7,0.3-2.1,0.3-2.6,0.4
		c-1.2,0-3.1-0.1-4.6,0.3l-1.1-0.4l-0.1,0.1c0,0-0.3,1.4-0.4,3c0,1.5,0.2,3.2,1.3,3.7l0,0.1l0.4,0c0.5,0,0.7-0.2,0.7,0l-0.7,0
		c0.5,0,0.2,0.1,0,0.2l0.6,0c0.1-0.1-0.1-0.1-0.1-0.1c0.3-0.1,0.7-0.3,1-0.2c0.5,0,0.1,0.3,0.7,0.2c3.2-0.1,6.5-0.3,9.7-0.8
		c0.1,0.1,0,0.1-0.1,0.1l2.7-0.5c0.3,0,0.3,0.1,0.4,0.2c-0.1-0.1,1.2-0.3,2.4-0.5l0.3-0.1h0.1l0.1-0.3c0.1,0-0.1,0.4-0.1,0.3
		c0.1-0.2,0.2-0.2,0.2-0.2s0,0.1,0.1,0l-0.2,0.2c0.3-0.3,0.1-0.1,0.2-0.1l0.1-0.1l0.2-0.1l-0.3,0.3l-0.3,0.3l0,0l-0.2,0.5l-0.3,0.7
		l-0.1,0.4l0,0l-0.1,0l0.1,0l0.1,0v0l-0.1,0l0,0l0,0.1l0.1,0.1l0,0.1l-0.1,0.1l-0.1,0c-0.1,0-0.1,0-0.5,0.3c-0.1,0,0.1-0.3,0.2-0.4
		l0.3-0.4c-0.1,0.1-0.7,0.4-0.8,0.8c-0.3,0.2-0.3,0.1-0.4,0.1c0,0-0.1-0.1-0.5,0.2c-0.5,0.5-1.1,1.2-1.7,1.6v0c-1.6,1.1-2,2-3.5,3
		l0.1-0.1c-0.5,0.3-1.4,1.1-2.3,1.6c0.3-0.1,0.5-0.2,0,0.2c-1.1,0.6-1.7,1.2-2.5,1.5l-0.6,0.6c-1.4,0.9-2.8,1.7-4.3,2.3l-1.5,0.7
		l-0.8,0.3l-0.8,0.3c-2.3,0.7-4.6,1.1-7,1.2h-0.8l-0.8,0l-0.8-0.1l-0.7-0.1c-1.9-0.3-3.4-0.8-4.2-1.2l0.1,0l-0.5-0.2l-0.5-0.3
		l-0.5-0.3l-0.5-0.3l-1-0.7l-0.5-0.4l-0.3-0.2l-0.2-0.3c-1.4-1.5-2.5-3.3-3.2-5.2c-0.8-2.1-1.2-4.3-1.4-6.5
		c-0.1-1.1-0.1-2.1-0.1-3.1c0-1,0-1.9,0.1-2.7c0.3-1,0.4-2.3,0.7-3.4c-0.2,0.5-0.3,0.3-0.2-0.1c0.3-1.6,0.4-1.6,0.3-1.7
		c0-0.1-0.1-0.1,0.3-1.7c0.6-2.4,1.6-4.8,2.9-7l0.4-0.7l0.4-0.7l0.9-1.4c2-3,4.4-5.7,7-8.2c0.6-0.7,1.3-1.5,2.1-2.2l1.1-1.1l1.1-1
		l-0.1,0.2c0.7-0.7,3.3-2.8,6-4.7c2.7-2,5.6-3.9,6.6-4.6l-0.3,0.1c1.6-1.3,1.5-0.9,3-1.7c-0.3-0.1,1.1-1.2,1.6-1.6v0.1
		c0.8-0.6,2.6-2,4-2.7l0,0.2c0.5-0.4,1.4-0.8,2.2-1.2c0.4-0.2,0.8-0.3,1.2-0.5l0.9-0.3l0.8-0.3l0.9-0.2l0.5-0.1l0.5-0.1
		c0.3,0,0.7-0.1,1-0.1c1.3-0.2,2.6-0.3,3.9-0.2l0.4,0.1l0.4,0.2l0.7,0.4l0.2,0l0.6-0.7c0.4-0.4,0.8-1.1,1.2-1.7
		c0.4-0.7,0.7-1.4,0.7-2.1c0-0.4-0.1-0.7-0.4-1.1c-0.3-0.4-0.7-0.7-1.3-1l0.1-0.1l-1-0.2c-1.2-0.3-1.7-0.1-1.7-0.3l1.6,0.2
		c-0.6-0.1-0.7-0.1-0.6-0.2l0.7,0l-1.4-0.3c-0.3,0,0.2,0.1,0.4,0.1l-1.1,0h-1.2l-0.5,0l-0.1-0.1c0-0.1-0.1-0.1-0.8-0.1
		c-1.9,0.1-3.6,0.5-5.3,1c-3.2,1-6.3,2.4-9.1,4.1l-4,2.6c-0.1,0,0-0.1,0.1-0.2l-2.2,1.5l-2.1,1.5c-0.4,0.2-0.6,0.2-0.8,0.2
		c0.1,0-1.8,1.3-3.8,2.8l-1.5,1.1l-1.3,1l-1.3,1l0.1,0.3c-1.5,1.2-0.7,0.1-2,1.3c-0.3,0.8-2.3,1.9-2.6,2.5c0,0-0.7,0.5-0.7,0.4
		c0,0.4-0.7,0.6-1,1.1c-0.1,0.2,0.1-0.1,0.3-0.1l-0.8,0.9c-0.4,0.3-0.6,0.3-0.2-0.1l-1.3,1.2l-1.9,1.9l-1.1,1.2l-0.5,0.6l-0.5,0.7
		l-1.1,1.4l-1.1,1.5c-0.8,1-1.4,2.1-2,3.1l-0.9,1.5l-0.8,1.5c-0.7,1.4-1.4,2.9-1.9,4.4c0.2-0.2,0.3-0.6,0.5-0.9
		c0.2-0.4,0.4-0.7,0.6-0.9c-0.1,0.5-0.3,0.8-0.4,1.1c-0.1,0.3-0.2,0.5-0.2,0.7c-0.5,0.2-0.8,2-1.4,2.6l0.1,0.3l-0.3,0.4
		c-0.3,1.1-0.3,1.7-0.4,2l-0.1,0.5l-0.1,0.4c-0.1,0.3-0.2,0.8-0.4,1.7c-0.3,2.2-0.1,3.3-0.3,4.5c0-0.2,0.2-0.5,0.2,0
		c-0.2,0.1,0.1,1.5-0.1,1.8l0,1.3c0,0.4,0.1,0.8,0.2,0.4c-0.1,0.3-0.1,2-0.3,1c0,0.5,0,1.1,0.1,1.5l0-0.7c0.2,1.9,0.1,3,0.6,4.1
		v-0.7l0.1,0.8l0.1,0.7c0.1,0.4,0.1,0.8,0,1.1l-0.4-1.1c0.2,0.9,0.4,1.7,0.7,2.4l0.4,1l0.5,1.1l-0.2-0.5c0.3,0.5,0.7,1.5,1.3,2.6
		c0.3,0.6,0.7,1.2,1.2,1.9l0.7,1l0.8,0.9c1.1,1.2,2.4,2.3,3.5,3.1l1.5,0.9l1,0.4l-0.7-0.6l1.5,0.6c-0.2-0.1-1,0.2-1.1,0.1
		c2.5,1.4,5.3,2.2,8.2,2.5l1.9,0.1h2c2.6-0.1,5.1-0.5,7.2-1c2-0.5,3.6-1.2,4.3-1.4c1.2-0.4,0.3,0.2,0.3,0.3c1.3-0.7,0.5-0.4,1.7-1
		c0.3-0.1,0,0.2-0.1,0.3c0.5-0.3,1-0.4,1-0.5c-0.7,0.3-0.5-0.1-0.8-0.1l1.5-0.7v0.2c0.3-0.2,0.6-0.8,2-1.5c1.9-1.1,3.9-2.4,5.6-3.8
		v0l0-0.1l0.1-0.1c-0.1,0.4-0.3,0.8-0.6,0.9l0.1-0.5c-0.3,0.8-0.4,1.3-0.6,2.1l0.1-0.3c-0.1,0.9-1.5,5.6-1.5,6.5l0.3-0.3l-0.1,0.8
		c0-0.1-0.5-0.5-0.4-0.6c-0.5,1.5-3.2,9.3-3.8,10.6c-0.3,0.5-0.3,0-0.4,0c-0.2,0.7,0.1,0.4-0.1,0.9c-0.1,0.1-0.1-0.1-0.1-0.2
		c-0.1,0.3-0.2,0.5-0.1,0.5c0.2-0.3,0.4-0.1,0.6-0.1l-0.3,0.7l-0.1-0.1c-0.1,0.1,0.3,0.6-0.1,1.3c-0.5,1.2-0.9,2.6-1.4,3.8
		c-0.1,0,0-0.3,0-0.6c-0.1,0.1-0.1,0.4-0.3,0.5c0.3-0.3-0.1,0.5,0.1,0.4c0,1-0.7,2.1-0.8,3c0.3,0.2,5.1,3.8,5.5,3.9l-0.3,0.5
		c0.1,0,0.3-0.5,0.4-0.8l-0.2-0.1c0.1-0.6,0.2-0.1,0.4-0.7c0.2,0,0,0.6-0.1,1.1c0.2-0.4,0.4-0.8,0.3-1c0.2-0.4,0.2,0.1,0.4-0.3
		c0.1-0.4,0.1-0.9,0.3-1.2h0c0.5-0.9,0.3-1.5,0.8-2.4l0,0.1c0.2-0.3,0.3-0.9,0.6-1.4c-0.1,0.1-0.3,0.2-0.2-0.1
		c0.3-0.6,0.4-1.1,0.7-1.5v-0.5c0.8-2.2,3.8-11,4.6-13.3v0.1c1.1-3.4,3.7-10.4,4.7-14c0.4-0.5,0.6-1.2,0.8-1.8
		c-0.2,0.3-0.3,0.1-0.2-0.1c0.7-1.7-0.1-0.1,0.5-1.9l0.8-2.4l0.6-1.6c0.3-1,0.7-1.9,1.1-2.8l2.3-6l1.6-4.2
		C397.8,82.4,397.7,82.4,397.7,82.4L397.7,82.4z M155.2,32.5c0.2-0.3,0.4-0.6,0.4-1.1C155.4,31.6,155.3,32.1,155.2,32.5z
		 M155.1,32.5C155.1,32.5,155.2,32.5,155.1,32.5C155.2,32.5,155.2,32.5,155.1,32.5z M150.5,115.7l0,0.4L150.5,115.7z"/>
	<path class="st1" d="M155.3,74.3c0.3-1.9-0.1-0.1,0.1-2.1c0.5-4.3,1.3-8.5,2.2-12.7c-0.1-1.1,0.3-2.4,0.4-3.5l0,0.1
		c0.1-1.1,1.4-7.4,1.6-8.7l-0.1,0.2c0-1.2,0.3-0.9,0.5-1.8c-0.3,0.1-0.3-0.9-0.3-1.3l0.1,0c0-0.5,0-1.9,0.2-2.8l0.1,0.1
		c0-0.8,0.3-2.2,0.4-2.8c0.3-1.2,0.9-3.1,1.1-4.8l0.7-1V33c0,0-1.3-0.7-2.8-1.2c-1.5-0.5-3.2-0.7-4,0.3l-0.1,0l-0.1,0.4
		c-0.2,0.5,0,0.8-0.2,0.7l0.1-0.7c-0.1,0.5-0.1,0.1-0.2-0.1c-0.1,0.2-0.1,0.4-0.2,0.6c0,0.1,0.1-0.1,0.1-0.1c0,0.3,0.1,0.7-0.1,1.1
		c-0.1,0.5-0.3,0-0.4,0.6c-0.8,3.3-1.6,6.6-2.1,9.9c-0.1,0.1-0.1,0-0.1-0.1c-0.1,1-0.3,1.9-0.4,2.9c-0.1,0.3-0.2,0.3-0.3,0.4
		c0.1-0.1-0.1,1.2-0.3,2.6L151,52l-0.2,0.9l0.3,0.1c-0.2,1-0.4,0.3-0.5,1.2c0.3,0.4-0.3,1.5-0.1,1.9c0,0-0.1,0.4-0.3,0.4
		c0.2,0.2,0,0.5,0,0.8c0,0.1,0.1-0.1,0.1-0.1l0,0.7c-0.1,0.3-0.3,0.3-0.2,0c-0.8,3.9-1.5,7.9-2.1,11.8c0.2-0.2,0.2-0.8,0.5-1
		c0.1,0.5-0.1,0.7,0,0.9c-0.4,0.1-0.3,1.1-0.7,1.4l0.2,0.2l-0.2,0.2c-0.1,2.2,0,0.5-0.3,2.4c-0.1,1.1,0.1,1.7-0.1,2.3
		c0-0.1,0.2-0.3,0.2,0c-0.2,0,0,0.8-0.2,0.9c0,0.3-0.2,1.2,0.1,0.9c-0.1,0.1-0.3,0.9-0.4,0.4L147,79l0.1-0.3c-0.1,0.9-0.4,1.4-0.2,2
		l0.1-0.3c-0.1,0.5-0.1,1-0.4,1.2v-0.6c-0.1,0.9-0.2,1.5-0.1,2.3l0-0.3c0.1,1-0.4,6.2-0.1,7.1l0.3-0.4l0.1,0.8
		c0-0.1-0.6-0.5-0.5-0.5c-0.2,1.7-1.2,10.3-1.5,11.9c-0.2,0.6-0.3,0.1-0.4,0.1c0,0.8,0.2,0.4,0.1,1c-0.1,0.2-0.1-0.1-0.2-0.1
		c0,0.3-0.1,0.5,0,0.6c0.1-0.3,0.4-0.2,0.5-0.3l-0.1,0.8l-0.1-0.1c0,0.2,0.4,0.5,0.2,1.3c-0.2,1.3-0.3,2.8-0.5,4.2
		c-0.1,0-0.1-0.3-0.1-0.6c0,0.2,0,0.5-0.1,0.6c0.2-0.3,0,0.6,0.1,0.3c0.3,1.1-0.2,2.3,0,3.2c0.3,0.1,5.9,2.6,6.3,2.6
		c0,0.2-0.1,0.4-0.1,0.6c0.1-0.1,0.2-0.6,0.2-0.9l-0.2-0.1c0-0.7,0.1-0.1,0.2-0.8c0.2,0,0.1,0.6,0.1,1.1c0.1-0.5,0.3-0.9,0.1-1.1
		c0.1-0.4,0.2,0.1,0.4-0.4c0-0.4-0.1-0.9,0-1.3h0c0.3-1-0.1-1.6,0.2-2.6l0,0.1c0.1-0.3,0.1-1,0.3-1.6c-0.1,0.2-0.2,0.3-0.2-0.1
		c0.2-0.7,0.1-1.2,0.3-1.7l-0.1-0.5c0.3-2.5,1.3-12.2,1.6-14.7v0.1c0.4-3.8,1.5-11.5,1.9-15.5c0.3-0.6,0.4-1.4,0.5-2
		C155.4,74.7,155.2,74.6,155.3,74.3L155.3,74.3z"/>
</g>
</svg>
